<?xml version="1.0" encoding="UTF-8"?>
<svg width="29px" height="26px" viewBox="0 0 29 26" version="1.1" xmlns="http://www.w3.org/2000/svg" xmlns:xlink="http://www.w3.org/1999/xlink">
    <!-- Generator: Sketch 45.2 (43514) - http://www.bohemiancoding.com/sketch -->
    <title>Shape</title>
    <desc>Created with Sketch.</desc>
    <defs></defs>
    <g id="Page-1" stroke="none" stroke-width="1" fill="none" fill-rule="evenodd">
        <g id="Artboard" transform="translate(-839.000000, -182.000000)" fill-rule="nonzero" fill="#828EA2">
            <g id="Group-3" transform="translate(797.000000, 101.000000)">
                <path d="M49.6023794,81.891129 L70.8890419,81.891129 L70.8890419,85.3508065 L49.6023794,85.3508065 L49.6023794,81.891129 L49.6023794,81.891129 Z M49.6023794,95.7298387 L49.6023794,92.2701613 L70.8890419,92.2701613 L70.8890419,95.7298387 L49.6023794,95.7298387 L49.6023794,95.7298387 Z M45.0409518,81.0262097 C46.3005552,81.0262097 47.3216656,82.1879224 47.3216656,83.6209677 C47.3216656,85.0540131 46.3005552,86.2157258 45.0409518,86.2157258 C43.7813483,86.2157258 42.7602379,85.0540131 42.7602379,83.6209677 C42.7602379,82.1879224 43.7813483,81.0262097 45.0409518,81.0262097 L45.0409518,81.0262097 Z M45.0409518,91.4052419 C46.3005552,91.4052419 47.3216656,92.5669547 47.3216656,94 C47.3216656,95.4330453 46.3005552,96.5947581 45.0409518,96.5947581 C43.7813483,96.5947581 42.7602379,95.4330453 42.7602379,94 C42.7602379,92.5669547 43.7813483,91.4052419 45.0409518,91.4052419 L45.0409518,91.4052419 Z M49.6023794,106.108871 L49.6023794,102.649194 L70.8890419,102.649194 L70.8890419,106.108871 L49.6023794,106.108871 L49.6023794,106.108871 Z M45.0409518,101.784274 C46.3005552,101.784274 47.3216656,102.945987 47.3216656,104.379032 C47.3216656,105.812078 46.3005552,106.97379 45.0409518,106.97379 C43.7813483,106.97379 42.7602379,105.812078 42.7602379,104.379032 C42.7602379,102.945987 43.7813483,101.784274 45.0409518,101.784274 Z" id="Shape"></path>
            </g>
        </g>
    </g>
</svg>