<?xml version="1.0" encoding="UTF-8"?>
<svg width="28px" height="27px" viewBox="0 0 28 27" version="1.1" xmlns="http://www.w3.org/2000/svg" xmlns:xlink="http://www.w3.org/1999/xlink">
    <!-- Generator: Sketch 45.2 (43514) - http://www.bohemiancoding.com/sketch -->
    <title>weather-partlycloudy</title>
    <desc>Created with Sketch.</desc>
    <defs></defs>
    <g id="Page-1" stroke="none" stroke-width="1" fill="none" fill-rule="evenodd">
        <g id="Artboard" transform="translate(-836.000000, -540.000000)" fill-rule="nonzero" fill="#828EA2">
            <g id="Group" transform="translate(797.000000, 459.000000)">
                <g id="weather-partlycloudy" transform="translate(39.000000, 81.000000)">
                    <path d="M15.2123419,4.75827568 C18.2703595,6.09291897 19.8900722,9.37121752 19.3328911,12.5199391 C20.9785192,13.9452863 22.028093,16.0573916 22.028093,18.4027357 L22.028093,18.6230166 C22.4297818,18.4804819 22.8703437,18.4027357 23.3238632,18.4027357 C25.4707656,18.4027357 27.2111738,20.1431439 27.2111738,22.2900462 C27.2111738,24.4369485 25.4707656,26.1773567 23.3238632,26.1773567 L6.4788509,26.1773567 C3.61631446,26.1773567 1.29577018,23.8568125 1.29577018,20.994276 C1.29577018,18.1317396 3.61631446,15.8111953 6.4788509,15.8111953 L6.82870884,15.8111953 C5.18308072,13.8027515 4.66477264,10.9390994 5.83096581,8.37347448 C7.41180542,4.79714879 11.6230585,3.16447836 15.2123419,4.75827568 L15.2123419,4.75827568 Z M14.1627681,7.12953511 C11.8692548,6.09291897 9.18701057,7.14249281 8.17630983,9.42304833 C7.58025555,10.7447339 7.68391716,12.2089542 8.30588685,13.3881051 C9.71827634,11.7036038 11.8692548,10.6281146 14.253472,10.6281146 C15.1605111,10.6281146 16.0416348,10.783607 16.8450123,11.0686765 C16.7672661,9.41009063 15.7824808,7.85516641 14.1627681,7.12953511 L14.1627681,7.12953511 Z M16.2619157,2.38701625 C15.5492421,2.07603141 14.8365686,1.85575048 14.0979795,1.71321576 L17.3244473,0.0287145289 L18.4906405,3.77349035 C17.8297977,3.22926687 17.0912087,2.76278961 16.2619157,2.38701625 L16.2619157,2.38701625 Z M6.59547021,3.4236324 C5.96054282,3.87715196 5.40336165,4.39546003 4.92392668,4.96559891 L5.0664614,1.32448471 L8.90194113,2.20560843 C8.09856362,2.47772017 7.32110151,2.89236662 6.59547021,3.4236324 L6.59547021,3.4236324 Z M22.028093,10.2523412 C21.9114737,9.48783684 21.7430236,8.74924783 21.4968273,8.03657424 L24.5807603,9.9802295 L21.9244314,12.869797 C22.0669662,12.0275464 22.0928816,11.1464227 22.028093,10.2523412 L22.028093,10.2523412 Z M2.64337117,12.3126158 C2.73407508,13.0900779 2.9025252,13.8286669 3.14872154,14.5154251 L0.0777462107,12.5717699 L2.72111738,9.69516007 C2.59154036,10.5374107 2.55266725,11.4185344 2.64337117,12.3126158 L2.64337117,12.3126158 Z M23.3238632,20.994276 L19.4365527,20.994276 L19.4365527,18.4027357 C19.4365527,15.5401992 17.1160084,13.219655 14.253472,13.219655 C11.3909355,13.219655 9.07039125,15.5401992 9.07039125,18.4027357 L6.4788509,18.4027357 C5.04758268,18.4027357 3.88731054,19.5630078 3.88731054,20.994276 C3.88731054,22.4255442 5.04758268,23.5858164 6.4788509,23.5858164 L23.3238632,23.5858164 C24.0394973,23.5858164 24.6196334,23.0056803 24.6196334,22.2900462 C24.6196334,21.5744121 24.0394973,20.994276 23.3238632,20.994276 Z" id="Shape"></path>
                </g>
            </g>
        </g>
    </g>
</svg>